# xmcd
#
# Track frame offsets:
#	150
#	18346
#	33615
#	50069
#	69799
#	82128
#	101423
#	117168
#	130128
#	141924
#	159149
#	176035
#	195714
#	211726
#	223270
#	240201
#
# Disc length: 3345 seconds
#
# Revision: 1
# Processed by: cddbd v1.5.2PL0 Copyright (c) Steve Scherf et al.
# Submitted via: audiograbber 1.83.01
#
DISCID=dc0d0f10
DTITLE=Various Artist - Country Ballads CD 2 af 2
DYEAR=2006
DGENRE=Ballads
TTITLE0=Trisha Yearwood - 1997 - How Do I Live
TTITLE1=Oak Ridge Boys - 1982 - I Wish You Could Have Turned My Head (And Left 
TTITLE1=My Head Alone)
TTITLE2=Kathy Mattea - 1986 - Love At The Five and Dime
TTITLE3=Mark Wills - 2002 - When You Think Of Me
TTITLE4=Patsy Cline - 1967 - Crazy
TTITLE5=George Strait - 1996 - Rockin´ In The Arms Of Your Memory
TTITLE6=Reba McEntire - 1994 - And Still
TTITLE7=Hank Williams Jr. and Lois Johnson - 1970 - So Sad (To Watch Good Love Go
TTITLE7=Bad)
TTITLE8=Loretta Lynn - 1977 - Sweet Dreams
TTITLE9=Toby Keith - 1996 - Does That Blue Moon Ever Shine On You
TTITLE10=Billy Currington - 2003 - Time With You
TTITLE11=Waylon Jennings - 1987 - I Can´t Help The Way I Don´t Feel About You
TTITLE12=Terri Clark - 1998 - Cure For The Common Heartache
TTITLE13=Freddy Fender - 1974 - Before The Next Teardrop Falls
TTITLE14=Lee Ann Womack - 1997 - Never Again, Again
TTITLE15=Roger Miller - 1966 - Husbands And Wives
EXTD=USM 2006 984 168-1
EXTT0=
EXTT1=
EXTT2=
EXTT3=
EXTT4=
EXTT5=
EXTT6=
EXTT7=
EXTT8=
EXTT9=
EXTT10=
EXTT11=
EXTT12=
EXTT13=
EXTT14=
EXTT15=
PLAYORDER=
